HIERARCHY
ROOT Hips
{
	OFFSET 0.000000 0.000000 0.000000 
	CHANNELS 6 Xposition Yposition Zposition Zrotation Yrotation Xrotation
	JOINT LeftUpLeg
	{
		OFFSET 1.363060 -1.794630 0.839290 
		CHANNELS 3 Zrotation Yrotation Xrotation
		JOINT LeftLeg
		{
			OFFSET 2.448110 -6.726130 0.000000 
			CHANNELS 3 Zrotation Yrotation Xrotation
			JOINT LeftFoot
			{
				OFFSET 2.562200 -7.039590 0.000000 
				CHANNELS 3 Zrotation Yrotation Xrotation
				JOINT LeftToeBase
				{
					OFFSET 0.157640 -0.433110 2.322550 
					CHANNELS 3 Zrotation Yrotation Xrotation
					End Site
					{
						OFFSET 0.000000 0.000000 0.000000 
					}
				}
			}
		}
	}
	JOINT RightUpLeg
	{
		OFFSET -1.305520 -1.794630 0.839290 
		CHANNELS 3 Zrotation Yrotation Xrotation
		JOINT RightLeg
		{
			OFFSET -2.542530 -6.985550 0.000000 
			CHANNELS 3 Zrotation Yrotation Xrotation
			JOINT RightFoot
			{
				OFFSET -2.568260 -7.056230 0.000000 
				CHANNELS 3 Zrotation Yrotation Xrotation
				JOINT RightToeBase
				{
					OFFSET -0.164730 -0.452590 2.363150 
					CHANNELS 3 Zrotation Yrotation Xrotation
					End Site
					{
						OFFSET 0.000000 0.000000 0.000000 
					}
				}
			}
		}
	}
	JOINT Spine
	{
		OFFSET 0.028270 2.035590 -0.193380 
		CHANNELS 3 Zrotation Yrotation Xrotation
		JOINT Spine1
		{
			OFFSET 0.056720 2.048850 -0.042750 
			CHANNELS 3 Zrotation Yrotation Xrotation
			JOINT Neck1
			{
				OFFSET -0.054170 1.746240 0.172020 
				CHANNELS 3 Zrotation Yrotation Xrotation
				JOINT Head
				{
					OFFSET 0.104070 1.761360 -0.123970 
					CHANNELS 3 Zrotation Yrotation Xrotation
					End Site
					{
						OFFSET 0.000000 0.000000 0.000000 
					}
				}
			}
			JOINT LeftArm
			{
				OFFSET 3.362410 1.200890 -0.311210 
				CHANNELS 3 Zrotation Yrotation Xrotation
				JOINT LeftForeArm
				{
					OFFSET 4.983000 -0.000000 -0.000000 
					CHANNELS 3 Zrotation Yrotation Xrotation
					JOINT LeftHand
					{
						OFFSET 3.483560 -0.000000 -0.000000 
						CHANNELS 3 Zrotation Yrotation Xrotation
						JOINT LeftHandIndex1
						{
							OFFSET 0.715260 -0.000000 -0.000000 
							CHANNELS 3 Zrotation Yrotation Xrotation
							End Site
							{
								OFFSET 0.000000 0.000000 0.000000 
							}
						}
					}
				}
			}
			JOINT RightArm
			{
				OFFSET -3.136600 1.374050 -0.404650 
				CHANNELS 3 Zrotation Yrotation Xrotation
				JOINT RightForeArm
				{
					OFFSET -5.241900 -0.000000 -0.000000 
					CHANNELS 3 Zrotation Yrotation Xrotation
					JOINT RightHand
					{
						OFFSET -3.444170 -0.000000 -0.000000 
						CHANNELS 3 Zrotation Yrotation Xrotation
						JOINT RightHandIndex1
						{
							OFFSET -0.622530 -0.000000 -0.000000 
							CHANNELS 3 Zrotation Yrotation Xrotation
							End Site
							{
								OFFSET 0.000000 0.000000 0.000000 
							}
						}
					}
				}
			}
		}
	}
}
MOTION
Frames: 10
Frame Time: 0.041667
-1.523099 26.062573 -4.631260 -179.182522 15.462984 -175.222779 -22.789673 -1.281195 -51.301036 13.692512 18.503325 70.766588 3.235886 -3.721822 -25.492815 0.353700 3.821000 10.573700 23.985724 19.165672 -4.673784 -3.578725 -7.960643 30.688978 1.359817 -8.131648 18.034934 -0.726400 5.445700 -15.184200 -7.104991 3.715816 18.934546 2.379887 2.478187 -10.280721 3.060096 3.214237 21.776324 2.667800 1.805400 5.659200 -72.815439 -11.913642 15.035514 13.877878 -21.077046 -2.783506 -1.022137 -0.944896 2.727891 -7.125000 0.000000 0.000000 78.165082 15.894695 42.624622 -26.109784 31.793395 -10.364694 0.861610 1.017722 7.590499 7.125000 0.000000 0.000000 
-1.530275 26.103979 -4.669369 -179.169152 15.428922 -175.149677 -22.725415 -1.152427 -50.914584 13.571531 18.435422 70.247493 3.492427 -5.291889 -25.108006 0.625900 5.062700 14.087400 23.856468 19.331092 -4.792731 -3.582133 -7.954356 30.537794 1.357441 -8.561692 19.070939 -0.725500 5.442600 -15.175300 -7.134982 3.705855 18.846265 2.507834 2.483858 -10.297457 3.074441 3.236835 21.867054 2.678100 1.819100 5.678500 -72.857145 -11.907700 14.764823 13.792773 -20.947456 -2.746105 -1.022132 -0.933435 2.980389 -7.125000 0.000000 0.000000 78.220115 15.728638 42.883863 -26.236784 31.937414 -10.476991 0.854575 1.031771 7.210572 7.125000 0.000000 0.000000 
-1.536869 26.145191 -4.702630 -179.320437 15.340486 -175.131624 -22.853743 -1.061574 -50.513022 13.399620 18.344423 69.630620 3.633647 -6.345993 -24.673832 0.837700 5.838400 16.316300 23.578082 19.448400 -4.941649 -3.618938 -7.974642 30.393264 1.554248 -9.730581 19.752204 -0.519000 4.617000 -12.819400 -7.336653 3.669282 18.764183 2.717707 2.475571 -10.333235 3.004026 3.258024 21.889286 2.661400 1.825200 5.683200 -72.857475 -12.002872 14.358114 13.638693 -20.714020 -2.680604 -1.030386 -0.899202 3.248893 -7.125000 0.000000 0.000000 78.343283 15.650688 43.172762 -26.318885 32.023072 -10.545106 0.869015 1.036565 6.840891 7.125000 0.000000 0.000000 
-1.545693 26.191058 -4.737733 -179.374726 15.144494 -175.117647 -23.291767 -0.748036 -50.303562 13.132531 18.261051 69.085968 3.181404 -3.798445 -24.918213 0.288100 3.451600 9.538800 23.407252 19.398420 -5.024558 -3.663315 -8.002639 30.312085 1.706939 -10.714086 20.393163 -0.364000 3.875700 -10.727200 -7.500828 3.611710 18.708438 2.826022 2.448245 -10.396955 2.951674 3.235233 22.005889 2.651900 1.810300 5.724200 -72.823791 -12.143457 14.131214 13.481178 -20.481236 -2.615976 -1.039944 -0.882403 3.403813 -7.125000 0.000000 0.000000 78.518143 15.532848 43.085557 -26.501621 32.215412 -10.689393 0.859522 1.052445 7.300369 7.125000 0.000000 0.000000 
-1.554420 26.236827 -4.774290 -179.171702 14.990016 -175.082758 -22.871746 -0.834187 -49.774333 13.012371 18.181714 68.483776 3.557294 -6.152217 -24.299608 0.753800 5.545100 15.470200 23.517068 19.392066 -5.032287 -3.714465 -8.027324 30.251482 1.783323 -11.535512 21.310151 -0.269600 3.340400 -9.227800 -7.501943 3.603251 18.728908 2.776431 2.437048 -10.411086 2.922878 3.228199 21.966934 2.638800 1.805800 5.717300 -72.799922 -12.206000 14.184120 13.484798 -20.487527 -2.617418 -1.040528 -0.897282 3.226462 -7.125000 0.000000 0.000000 78.660610 15.415138 42.889668 -26.664125 32.385886 -10.820160 0.845154 1.055161 7.761300 7.125000 0.000000 0.000000 
-1.561984 26.278330 -4.811818 -178.970575 14.837490 -175.049789 -23.013705 -0.485234 -49.552116 12.771907 18.113579 67.982592 3.148580 -3.898481 -24.481981 0.293100 3.481400 9.622100 23.647653 19.422882 -5.063222 -3.768916 -8.057814 30.221574 1.830212 -12.256885 22.199268 -0.221900 3.032400 -8.369100 -7.577161 3.628139 18.791761 2.698116 2.433844 -10.330557 2.937071 3.183366 21.823701 2.623800 1.787300 5.685300 -72.765318 -12.311384 14.235936 13.473418 -20.467015 -2.613151 -1.040329 -0.907376 3.013320 -7.125000 0.000000 0.000000 78.779319 15.394131 42.919494 -26.697126 32.410946 -10.845254 0.849917 1.052366 7.669743 7.125000 0.000000 0.000000 
-1.569644 26.322548 -4.850508 -178.788369 14.649489 -175.021331 -22.708611 -0.542308 -49.041349 12.628947 18.025879 67.386896 3.394407 -5.503992 -23.937106 0.628000 5.070900 14.110900 23.734283 19.361353 -5.126688 -3.815517 -8.091612 30.232153 1.823598 -12.715927 22.971961 -0.197100 2.858700 -7.885700 -7.558571 3.600570 18.828462 2.660592 2.414756 -10.283407 3.065200 3.180656 21.803362 2.662000 1.794000 5.681200 -72.801983 -12.397986 14.142708 13.410185 -20.369014 -2.587277 -1.039292 -0.904598 2.882590 -7.125000 0.000000 0.000000 78.856680 15.303061 43.027935 -26.744282 32.455178 -10.881242 0.850372 1.075684 7.509842 7.125000 0.000000 0.000000 
-1.576141 26.361045 -4.884932 -178.554536 14.411760 -174.979311 -22.703293 -0.387135 -48.780969 12.415465 17.949454 66.886628 3.093853 -3.995393 -23.905761 0.343500 3.766200 10.419800 23.880661 19.294327 -5.222643 -3.897717 -8.155425 30.301333 1.909665 -13.574965 23.662784 -0.111700 2.154900 -5.933800 -7.358074 3.517244 18.858775 2.649311 2.382115 -10.302585 3.152798 3.232077 21.853319 2.713600 1.817700 5.700400 -72.888343 -12.496068 14.003358 13.338902 -20.261698 -2.557870 -1.042288 -0.908354 2.838088 -7.125000 0.000000 0.000000 78.875343 15.148027 43.120903 -26.803912 32.531994 -10.945989 0.835434 1.079724 7.039577 7.125000 0.000000 0.000000 
-1.582735 26.399251 -4.917514 -178.408692 14.176852 -174.938594 -22.360618 -0.590397 -48.233430 12.306024 17.854061 66.302821 3.498426 -6.457087 -23.296950 0.867500 5.938600 16.606500 23.935132 19.199350 -5.410073 -3.987400 -8.235992 30.423623 1.968288 -14.353706 24.347484 -0.056500 1.533800 -4.218900 -7.176906 3.474484 18.913882 2.679753 2.371099 -10.244931 3.043828 3.250563 21.775047 2.702500 1.810300 5.684300 -72.969922 -12.736415 13.978332 13.205845 -20.054286 -2.503571 -1.049432 -0.927135 2.736151 -7.125000 0.000000 0.000000 78.844045 15.061845 43.127115 -26.805929 32.538701 -10.947446 0.849394 1.056745 6.559034 7.125000 0.000000 0.000000 
-1.590881 26.441821 -4.954266 -178.454558 13.979771 -175.021136 -22.487041 -0.479778 -47.748867 12.130448 17.753675 65.758973 3.499340 -6.484052 -23.203627 0.831200 5.816200 16.252200 23.803101 19.038287 -5.530893 -4.067855 -8.319396 30.577510 1.963954 -14.862581 25.006143 -0.029400 1.106400 -3.041700 -7.272528 3.476360 18.894453 2.753009 2.373399 -10.242093 3.004639 3.136256 22.002537 2.684600 1.756700 5.758100 -73.052801 -12.832113 13.847245 13.118576 -19.919257 -2.467616 -1.044425 -0.953634 2.728875 -7.125000 0.000000 0.000000 78.817421 14.885679 43.152468 -26.774034 32.515408 -10.921424 0.866515 1.046290 6.436707 7.125000 0.000000 0.000000 
